<?xml version="1.0" encoding="UTF-8" standalone="no"?>
<svg
   xmlns:dc="http://purl.org/dc/elements/1.1/"
   xmlns:cc="http://creativecommons.org/ns#"
   xmlns:rdf="http://www.w3.org/1999/02/22-rdf-syntax-ns#"
   xmlns:svg="http://www.w3.org/2000/svg"
   xmlns="http://www.w3.org/2000/svg"
   xmlns:sodipodi="http://sodipodi.sourceforge.net/DTD/sodipodi-0.dtd"
   xmlns:inkscape="http://www.inkscape.org/namespaces/inkscape"
   version="1.0"
   width="508.27621pt"
   height="536.80591pt"
   viewBox="0 0 508.27621 536.80591"
   preserveAspectRatio="xMidYMid meet"
   id="svg14"
   sodipodi:docname="logo.svg"
   inkscape:version="0.92.3 (2405546, 2018-03-11)">
  <defs
     id="defs18" />
  <sodipodi:namedview
     pagecolor="#ffffff"
     bordercolor="#666666"
     borderopacity="1"
     objecttolerance="10"
     gridtolerance="10"
     guidetolerance="10"
     inkscape:pageopacity="0"
     inkscape:pageshadow="2"
     inkscape:window-width="1920"
     inkscape:window-height="1015"
     id="namedview16"
     showgrid="false"
     inkscape:zoom="0.61982329"
     inkscape:cx="425.14846"
     inkscape:cy="368.31324"
     inkscape:window-x="0"
     inkscape:window-y="28"
     inkscape:window-maximized="1"
     inkscape:current-layer="g12"
     fit-margin-top="0"
     fit-margin-left="0"
     fit-margin-right="0"
     fit-margin-bottom="0" />
  <metadata
     id="metadata2">
Created by potrace 1.15, written by Peter Selinger 2001-2017
<rdf:RDF>
  <cc:Work
     rdf:about="">
    <dc:format>image/svg+xml</dc:format>
    <dc:type
       rdf:resource="http://purl.org/dc/dcmitype/StillImage" />
    <dc:title />
  </cc:Work>
</rdf:RDF>
</metadata>
  <g
     transform="matrix(0.1,0,0,-0.1,-770.71377,578.24028)"
     id="g12"
     style="fill:#000000;stroke:none">
    <path
       d="m 10656.164,5154.5078 c -36.076,-17 -80.169,-48 -80.169,-55 0,-2 5.345,-2 12.025,1 6.681,2 20.711,-1 31.4,-8 l 20.042,-12 -30.063,-8 c -16.702,-4 -136.955,-15 -267.229,-23 -223.136,-16 -292.616,-20 -648.0301,-46 -473.663,-34 -1208.7673,-73 -1834.7507,-100 0,0 657.7431,30.2578 1891.5368,90 566.525,39 715.505,50 780.308,56 35.408,4 64.803,3 64.803,-1 0,-5 -4.676,-17 -11.357,-27 -16.702,-27 -8.017,-30 30.063,-8 19.374,11 46.765,20 60.795,20 14.697,0 30.731,7 36.744,15 5.344,8 12.693,15 16.701,15 5.345,0 5.345,6 1.337,18 -4.009,9 -8.685,34 -10.69,55 -4.676,43 -8.684,44 -63.466,18 z"
       id="path6"
       inkscape:connector-curvature="0"
       sodipodi:nodetypes="cscccccccccsccscsccc"
       style="fill:#ffffff;stroke-width:0.81735671;fill-opacity:1" />
    <path
       d="m 12042.9,1974.5078 c 277,48 478,117 564,194 64,58 83,117 92,290 5,108 18,204 45,340 21,105 40,220 42,258 l 4,67 h -47 -46 l 1,108 c 1,59 1,112 1,118 -1,7 -11,12 -23,12 -13,0 -60,3 -105,7 -60,6 -83,5 -83,-4 0,-6 6,-11 13,-11 15,0 64,-37 57,-43 -3,-2 -24,-7 -48,-10 l -42,-5 -867,853 c -477,470 -869,852 -872,850 -2,-3 1,-11 7,-18 7,-8 8,-17 4,-21 -4,-4 -2,-6 4,-4 14,4 67,-48 904,-872 349,-344 675,-664 724,-711 49,-47 85,-89 80,-92 -14,-8 -1628,1290 -1635,1316 -3,12 -19,93 -35,181 -15,87 -30,154 -32,148 -1,-5 9,-77 23,-160 14,-82 25,-156 25,-164 0,-11 -18,-17 -66,-22 -37,-4 -68,-5 -70,-3 -2,1 15,77 37,167 22,91 38,171 36,180 -2,8 -23,-67 -47,-167 l -44,-183 -31,-5 c -29,-5 -1288.0002,-135 -1306.0002,-135 -5,0 -9,7 -9,16 0,19 4,19 -232,-12 -146,-19 -135,-8 -118,-128 9,-58 8,-71 -4,-78 -8,-4 -12,-16 -10,-25 5,-22 104,-783 104,-800 0,-10 -126,-13 -619,-13 l -567.4112,-1.468 -5.2519,-1467.8582 c 0,0 1510.2629,-40.6019 4196.6633,50.3262 z m -1235,2581 c 0,-10 -43,-142 -96,-293 -235,-672 -384,-1099 -390,-1124 -3,-14 -8,-24 -10,-22 -2,2 36,172 86,378 50,206 104,430 120,499 16,69 54,224 83,345 l 53,220 54,6 c 99,10 100,10 100,-9 z m -174,-19 c -3,-10 -24,-97 -47,-193 -23,-96 -54,-227 -69,-290 -193,-805 -241,-1007 -245,-1018 -4,-11 -16,-8 -49,12 -25,14 -64,28 -88,30 l -43,4 -3,66 -3,66 h -59 -60.0002 v 90 90 h -255 c -207,0 -255,3 -255,13 0,8 -22,182 -49,388 -27,206 -53,400 -56,432 -5,37 -12,57 -21,57 -8,0 -15,18 -19,48 -14,95 -26,85 120,100 72,7 355,37 630.0002,66 587,63 578,62 571,39 z m 1801,-1272 182,-146 -82,-3 c -611,-20 -1433,-39 -1438,-34 -3,4 -34,160 -68,347 -34,187 -93,510 -131,719 -39,208 -70,385 -70,392 0,7 321,-244 713,-558 391,-314 794,-637 894,-717 z m -1502,515 c 62,-386 112,-702 111,-703 -1,-1 -50,-3 -110,-4 l -108,-1 -21,-35 -20,-35 -246,7 c -135,4 -246,8 -247,9 -1,0 40,118 91,261 50,143 167,478 260,744 93,266 171,478 173,471 3,-7 55,-329 117,-714 z m 1590,-558 40,-42 -42,33 c -45,34 -60,51 -46,51 5,0 27,-19 48,-42 z m 79,15 c 34,-11 42,-11 63,2 l 23,15 v -68 c 0,-92 -16,-92 -111,4 -80,81 -78,83 25,47 z"
       id="path8"
       inkscape:connector-curvature="0"
       sodipodi:nodetypes="ccccccccccscssccccccsccscccccscccccccssccccsscccsccssscccscscscccccccccssscsccccccccscscccscccccccscccccsccccscc"
       style="fill:#ffffff;fill-opacity:1" />
    <rect
       style="opacity:1;fill:#ffffff;fill-opacity:1;stroke:none;stroke-width:7.7933135;stroke-opacity:1"
       id="rect828"
       width="151.93463"
       height="5368.0591"
       x="7707.1377"
       y="-5782.4028"
       transform="scale(1,-1)" />
  </g>
</svg>
